<svg width="303" height="315" viewBox="0 0 303 315" fill="none" xmlns="http://www.w3.org/2000/svg">
<path d="M0 108L199.115 315L214.706 303.293L217.874 284.66C222.08 259.929 233.496 237.139 250.576 219.378L272.33 196.755C292.109 176.193 303 148.754 303 119.478C303 57.6984 247.25 0 188.073 0C159.912 0 133.518 11.3227 113.74 31.8841L91.9764 54.5026C74.8929 72.2574 52.9732 84.1249 29.1861 88.4978L11.2738 91.7908L0 108Z" fill="#828282"/>
<path d="M44.829 266.853C61.2572 283.931 87.8759 283.931 104.304 266.853L44.829 205.023C28.4008 222.101 28.4008 249.774 44.829 266.853Z" fill="#828282"/>
</svg>
